<svg xmlns="http://www.w3.org/2000/svg" viewBox="0 0 470.761 475.699"><defs><style>.a{opacity:0.149;}.b{fill:#a2bc3a;fill-rule:evenodd;}</style></defs><g class="a" transform="translate(264.061 -58.744) rotate(47)"><path class="b" d="M94.458,113.071h0c0-.633,8.858-16.451,8.858-34.8A54.973,54.973,0,0,0,94.458,47.9h0c0,.633-8.858,12.022-8.858,30.371s8.858,34.167,8.858,34.8Z" transform="translate(103.585 255.331)"/><path class="b" d="M94.458,59.9h0c-.633.633-8.858,12.022-8.858,30.371s8.858,34.167,8.858,34.8h0c0-.633,8.858-16.451,8.858-34.8S95.091,60.533,94.458,59.9Z" transform="translate(103.585 319.258)"/><path class="b" d="M133.18,86.263c0-.633-9.491-15.818-25.309-25.309S77.5,53.362,77.5,53.994h0c0,.633,5.695,13.92,21.513,23.411,15.185,8.858,33.534,8.858,34.167,8.858Z" transform="translate(60.435 284.67)"/><path class="b" d="M143.48,92.263c0-.633-9.491-15.818-25.309-25.309S87.8,59.362,87.8,59.994h0c0,.633,5.694,13.92,21.513,23.411,15.818,8.858,33.535,8.858,34.167,8.858Z" transform="translate(115.305 316.633)"/><path class="b" d="M77.4,92.3h0c.633,0,14.552,1.9,31-7.593,15.818-9.491,24.676-24.676,25.309-25.309h0c-.633,0-18.349,0-34.167,9.491C83.094,78.382,77.4,91.669,77.4,92.3Z" transform="translate(59.902 316.595)"/><path class="b" d="M143.48,53.4h0c-.633,0-18.349,0-34.167,9.491S87.8,85.669,87.8,86.3h0c.633,0,14.553,1.9,30.371-6.96C133.989,69.851,143.48,54.033,143.48,53.4Z" transform="translate(115.305 284.631)"/><path class="b" d="M94.458,24.1h0c0,.633-8.858,12.022-8.858,30.371s8.858,34.167,8.858,34.8h0c0-.633,8.858-16.451,8.858-34.8S95.091,24.733,94.458,24.1Z" transform="translate(103.585 128.542)"/><path class="b" d="M94.458,101.371h0c0-.633,8.858-16.451,8.858-34.8A54.973,54.973,0,0,0,94.458,36.2h0c0,.633-8.858,12.022-8.858,30.371s8.858,34.167,8.858,34.8Z" transform="translate(103.585 193.002)"/><path class="b" d="M133.18,62.463c0-.633-9.491-15.818-25.309-25.309S77.5,29.562,77.5,30.194h0c0,.633,5.695,13.92,21.513,23.411,15.185,8.858,33.534,8.858,34.167,8.858Z" transform="translate(60.435 157.881)"/><path class="b" d="M143.48,68.563c0-.633-9.491-15.818-25.309-25.309S87.8,35.662,87.8,36.294h0c0,.633,5.694,13.92,21.513,23.411,15.818,8.225,33.535,8.858,34.167,8.858Z" transform="translate(115.305 190.377)"/><path class="b" d="M77.4,68.6h0c.633,0,14.552,1.9,31-7.593,15.818-9.491,24.676-24.676,25.309-25.309h0c-.633,0-18.349,0-34.167,9.491C83.094,54.682,77.4,67.969,77.4,68.6Z" transform="translate(59.902 190.338)"/><path class="b" d="M143.48,29.7h0c-.633,0-18.349,0-34.167,9.491S87.8,61.969,87.8,62.6h0c.633,0,14.553,1.9,30.371-6.96C133.989,45.518,143.48,30.333,143.48,29.7Z" transform="translate(115.305 158.375)"/><path class="b" d="M94.458,65.471h0c.633-.633,8.858-16.451,8.858-34.8A54.973,54.973,0,0,0,94.458.3h0c0,.633-8.858,12.022-8.858,30.371C85.6,49.653,94.458,65.471,94.458,65.471Z" transform="translate(103.585 1.753)"/><path class="b" d="M94.458,12.4h0c0,.633-8.858,12.022-8.858,30.371s8.858,34.167,8.858,34.8h0c0-.633,8.858-16.451,8.858-34.8S95.091,12.4,94.458,12.4Z" transform="translate(103.585 66.213)"/><path class="b" d="M104.385,71.571h0c.633-.633,8.858-16.451,8.858-34.8A54.973,54.973,0,0,0,104.385,6.4h0c0,.633-8.858,12.022-8.858,30.371C94.894,55.12,103.753,70.938,104.385,71.571Z" transform="translate(156.298 34.249)"/><path class="b" d="M104.358,18.4h0c0,.633-8.858,12.022-8.858,30.371s8.858,34.167,8.858,34.8h0c0-.633,8.858-16.451,8.858-34.8s-8.858-29.738-8.858-30.371Z" transform="translate(156.325 98.177)"/><path class="b" d="M104.385,95.171h0c0-.633,8.858-16.451,8.858-34.8A54.973,54.973,0,0,0,104.385,30h0c0,.633-8.858,12.022-8.858,30.371-.633,18.349,8.226,34.167,8.858,34.8Z" transform="translate(156.298 159.973)"/><path class="b" d="M104.385,107.171h0c0-.633,8.858-16.451,8.858-34.8A54.973,54.973,0,0,0,104.385,42h0c0,.633-8.858,12.022-8.858,30.371-.633,18.982,8.226,34.8,8.858,34.8Z" transform="translate(156.298 223.9)"/><path class="b" d="M124.158,83.271h0c.632-.633,8.858-16.451,8.858-34.8A54.973,54.973,0,0,0,124.158,18.1h0c0,.633-8.858,12.022-8.858,30.371S124.158,82.638,124.158,83.271Z" transform="translate(261.805 96.579)"/><path class="b" d="M124.158,30.1h0c-.633.633-8.858,12.022-8.858,30.371s8.858,34.167,8.858,34.8h0c0-.633,8.858-16.451,8.858-34.8.633-18.349-8.226-29.738-8.858-30.371Z" transform="translate(261.805 160.506)"/><path class="b" d="M124.158,41.7h0c-.633.633-8.858,12.022-8.858,30.371s8.858,34.167,8.858,34.8h0c0-.633,8.858-16.451,8.858-34.8.633-18.349-8.226-29.738-8.858-30.371Z" transform="translate(261.805 222.302)"/><path class="b" d="M104.358,53.8h0c-.633.633-8.858,12.022-8.858,30.371s8.858,34.167,8.858,34.8h0c0-.633,8.858-16.451,8.858-34.8S104.358,54.433,104.358,53.8Z" transform="translate(156.325 286.762)"/><path class="b" d="M77.4,6.03c0,.633,5.694,13.92,21.513,23.411s33.535,9.491,34.167,9.491h0c0-.633-9.491-15.818-25.309-25.309S78.033,6.03,77.4,6.03Z" transform="translate(59.902 31.455)"/><path class="b" d="M87.8,12.474c0,.633,5.694,13.92,21.513,23.411s33.534,9.491,34.167,9.491h0c0-.633-9.491-15.818-25.309-25.309C102.353,9.943,87.8,11.841,87.8,12.474Z" transform="translate(115.305 63.609)"/><path class="b" d="M77.4,44.269h0c.633,0,14.552,1.9,31-6.96C124.222,27.818,133.08,12.633,133.712,12h0c-.633,0-18.349,0-34.167,9.491C83.094,30.349,77.4,43.636,77.4,44.269Z" transform="translate(59.902 64.082)"/><path class="b" d="M143.48,5.9h0c-.633,0-18.349,0-34.167,9.491S87.8,38.169,87.8,38.8h0c.633,0,14.553,1.9,30.371-6.96C133.989,22.351,143.48,6.533,143.48,5.9Z" transform="translate(115.305 31.586)"/><path class="b" d="M87.8.13c0,.633,5.694,13.92,21.513,23.411s33.534,9.491,34.167,9.491h0c0-.633-9.491-15.818-25.309-25.309S87.8.13,87.8.13Z" transform="translate(115.305 0.024)"/><path class="b" d="M77.4,32.9h0c.633,0,14.552,1.9,31-7.593C124.222,15.818,133.08.633,133.712,0h0c-.633,0-18.349,0-34.167,9.491C83.094,18.982,77.4,32.269,77.4,32.9Z" transform="translate(59.902 0.155)"/><path class="b" d="M77.4,17.831c0,.633,5.694,13.92,21.513,23.411s33.535,9.491,34.167,9.491h0c0-.633-9.491-15.818-25.309-25.309S78.033,17.831,77.4,17.831Z" transform="translate(59.902 94.317)"/><path class="b" d="M87.8,23.83c0,.633,5.694,13.92,21.513,23.411s33.534,9.491,34.167,9.491h0c0-.633-9.491-15.818-25.309-25.309S87.8,23.83,87.8,23.83Z" transform="translate(115.305 126.281)"/><path class="b" d="M77.4,56.069h0c.633,0,14.552,1.9,31-6.96,15.818-9.491,24.676-24.676,25.309-25.309h0c-.633,0-18.349,0-34.167,9.491C83.094,42.149,77.4,55.436,77.4,56.069Z" transform="translate(59.902 126.944)"/><path class="b" d="M143.48,17.7h0c-.633,0-18.349,0-34.167,9.491S87.8,49.969,87.8,50.6h0c.633,0,14.553,1.9,30.371-6.96C133.989,34.151,143.48,18.333,143.48,17.7Z" transform="translate(115.305 94.448)"/><path class="b" d="M133.18,74.363c0-.633-9.491-15.818-25.309-25.309S77.5,41.462,77.5,42.094h0c0,.633,5.695,13.92,21.513,23.411,15.185,8.858,33.534,8.858,34.167,8.858Z" transform="translate(60.435 221.275)"/><path class="b" d="M143.48,80.363c0-.633-9.491-15.818-25.309-25.309S87.8,47.462,87.8,48.094h0c0,.633,5.694,13.92,21.513,23.411,15.818,8.858,33.535,8.858,34.167,8.858Z" transform="translate(115.305 253.239)"/><path class="b" d="M77.4,80.4h0c.633,0,14.552,1.9,31-7.593,15.818-9.491,24.676-24.676,25.309-25.309h0c-.633,0-18.349,0-34.167,9.491C83.094,66.482,77.4,80.4,77.4,80.4Z" transform="translate(59.902 253.2)"/><path class="b" d="M143.48,41.5h0c-.633,0-18.349,0-34.167,9.491S87.8,73.769,87.8,74.4h0c.633,0,14.553,1.9,30.371-6.96C133.989,57.951,143.48,42.133,143.48,41.5Z" transform="translate(115.305 221.237)"/><path class="b" d="M133.18,98.164c0-.633-9.491-15.818-25.309-25.309S77.5,65.262,77.5,65.895h0c0,.633,5.695,13.92,21.513,23.411,15.185,8.858,33.534,8.858,34.167,8.858Z" transform="translate(60.435 348.064)"/><path class="b" d="M143.48,65.3h0c-.633,0-18.349,0-34.167,9.491S87.8,97.569,87.8,98.2h0c.633,0,14.553,1.9,30.371-6.96C133.989,81.751,143.48,65.933,143.48,65.3Z" transform="translate(115.305 348.026)"/><path class="b" d="M114.358,47.9h0c-.633.633-8.858,12.022-8.858,30.371s8.858,34.167,8.858,34.8h0c0-.633,8.858-16.451,8.858-34.8C123.216,59.289,114.358,47.9,114.358,47.9Z" transform="translate(209.598 255.331)"/><path class="b" d="M152.98,86.263c0-.633-9.491-15.818-25.309-25.309S97.3,53.362,97.3,53.994h0c0,.633,5.694,13.92,21.512,23.411,15.818,8.858,33.535,8.858,34.168,8.858Z" transform="translate(165.914 284.67)"/><path class="b" d="M152.98,59.5h0c-.633,0-18.35,0-34.168,9.491S97.3,91.769,97.3,92.4h0c.633,0,14.553,1.9,30.371-6.96C144.122,75.318,152.98,59.5,152.98,59.5Z" transform="translate(165.914 317.127)"/><path class="b" d="M163.38,53.4h0c-.633,0-18.349,0-34.167,9.491S107.7,85.669,107.7,86.3h0c.633,0,14.553,1.9,30.371-6.96,15.818-9.491,24.676-25.309,25.309-25.942Z" transform="translate(221.318 284.631)"/><path class="b" d="M114.358,24.1h0c0,.633-8.858,12.022-8.858,30.371s8.858,34.167,8.858,34.8h0c0-.633,8.858-16.451,8.858-34.8s-8.858-29.738-8.858-30.371Z" transform="translate(209.598 128.542)"/><path class="b" d="M114.385,101.371h0c0-.633,8.858-16.451,8.858-34.8A54.972,54.972,0,0,0,114.385,36.2h0c0,.633-8.858,12.022-8.858,30.371-.633,18.349,8.226,34.167,8.858,34.8Z" transform="translate(209.571 193.002)"/><path class="b" d="M97.3,29.83c0,.633,5.694,13.92,21.513,23.411s33.534,9.491,34.167,9.491h0c0-.633-9.491-15.818-25.309-25.309S97.932,29.83,97.3,29.83Z" transform="translate(165.914 158.244)"/><path class="b" d="M163.38,68.563c0-.633-9.491-15.818-25.309-25.309S107.7,35.662,107.7,36.294h0c0,.633,5.695,13.92,21.513,23.411,15.818,8.225,33.535,8.858,34.167,8.858Z" transform="translate(221.318 190.377)"/><path class="b" d="M152.98,35.7h0c-.633,0-18.35,0-34.168,9.491S97.3,67.969,97.3,68.6h0c.633,0,14.553,1.9,30.371-6.96C144.122,51.518,152.98,36.333,152.98,35.7Z" transform="translate(165.914 190.338)"/><path class="b" d="M163.38,29.7h0c-.633,0-18.349,0-34.167,9.491S107.7,61.969,107.7,62.6h0c.633,0,14.553,1.9,30.371-6.96C153.889,45.518,162.747,30.333,163.38,29.7Z" transform="translate(221.318 158.375)"/><path class="b" d="M114.385,77.571h0c.633-.633,8.858-16.451,8.858-34.8A54.972,54.972,0,0,0,114.385,12.4h0c0,.633-8.858,12.022-8.858,30.371C104.894,61.12,113.753,76.938,114.385,77.571Z" transform="translate(209.571 66.213)"/><path class="b" d="M97.3,6.03c0,.633,5.694,13.92,21.513,23.411s33.534,9.491,34.167,9.491h0c0-.633-9.491-15.818-25.309-25.309S97.932,6.03,97.3,6.03Z" transform="translate(165.914 31.455)"/><path class="b" d="M107.6,12.474c0,.633,5.694,13.92,21.513,23.411s33.534,9.491,34.167,9.491h0c0-.633-9.491-15.818-25.309-25.309-15.185-10.124-29.738-8.225-30.371-7.593Z" transform="translate(220.785 63.609)"/><path class="b" d="M152.98,11.9h0c-.633,0-18.35,0-34.168,9.491S97.3,44.169,97.3,44.8h0c.633,0,14.553,1.9,30.371-6.96C144.122,28.351,152.98,12.533,152.98,11.9Z" transform="translate(165.914 63.549)"/><path class="b" d="M97.3,17.831c0,.633,5.694,13.92,21.513,23.411s33.534,9.491,34.167,9.491h0c0-.633-9.491-15.818-25.309-25.309S97.932,17.831,97.3,17.831Z" transform="translate(165.914 94.317)"/><path class="b" d="M107.6,23.83c0,.633,5.694,13.92,21.513,23.411s33.534,9.491,34.167,9.491h0c0-.633-9.491-15.818-25.309-25.309A50.076,50.076,0,0,0,107.6,23.83Z" transform="translate(220.785 126.281)"/><path class="b" d="M152.98,23.7h0c-.633,0-18.35,0-34.168,9.491S97.3,55.969,97.3,56.6h0c.633,0,14.553,1.9,30.371-6.96C144.122,40.151,152.98,24.333,152.98,23.7Z" transform="translate(165.914 126.411)"/><path class="b" d="M163.38,17.7h0c-.633,0-18.349,0-34.167,9.491S107.7,49.969,107.7,50.6h0c.633,0,14.553,1.9,30.371-6.96,15.818-9.491,24.676-25.309,25.309-25.942Z" transform="translate(221.318 94.448)"/><path class="b" d="M152.98,74.363c0-.633-9.491-15.818-25.309-25.309S97.3,41.462,97.3,42.094h0c0,.633,5.694,13.92,21.512,23.411,15.818,8.858,33.535,8.858,34.168,8.858Z" transform="translate(165.914 221.275)"/><path class="b" d="M163.38,80.363c0-.633-9.491-15.818-25.309-25.309S107.7,47.462,107.7,48.094h0c0,.633,5.695,13.92,21.513,23.411,15.818,8.858,33.535,8.858,34.167,8.858Z" transform="translate(221.318 253.239)"/><path class="b" d="M152.98,47.6h0c-.633,0-18.35,0-34.168,9.491S97.3,79.869,97.3,80.5h0c.633,0,14.553,1.9,30.371-6.96C144.122,63.418,152.98,48.233,152.98,47.6Z" transform="translate(165.914 253.733)"/><path class="b" d="M163.38,41.5h0c-.633,0-18.349,0-34.167,9.491S107.7,73.769,107.7,74.4h0c.633,0,14.553,1.9,30.371-6.96,15.818-9.491,24.676-25.309,25.309-25.942Z" transform="translate(221.318 221.237)"/><path class="b" d="M84.485,71.571h0c.633-.633,8.858-16.451,8.858-34.8A54.972,54.972,0,0,0,84.485,6.4h0c0,.633-8.858,12.022-8.858,30.371C74.995,55.12,83.853,70.938,84.485,71.571Z" transform="translate(50.285 34.249)"/><path class="b" d="M84.458,18.4h0c0,.633-8.858,12.022-8.858,30.371s8.858,34.167,8.858,34.8h0c0-.633,8.858-16.451,8.858-34.8S84.458,19.033,84.458,18.4Z" transform="translate(50.313 98.177)"/><path class="b" d="M84.485,95.171h0c0-.633,8.858-16.451,8.858-34.8A54.972,54.972,0,0,0,84.485,30h0c0,.633-8.858,12.022-8.858,30.371-.633,18.349,8.225,34.167,8.858,34.8Z" transform="translate(50.285 159.973)"/><path class="b" d="M84.485,107.171h0c0-.633,8.858-16.451,8.858-34.8A54.972,54.972,0,0,0,84.485,42h0c0,.633-8.858,12.022-8.858,30.371-.633,18.982,8.225,34.8,8.858,34.8Z" transform="translate(50.285 223.9)"/><path class="b" d="M64.558,83.271h0c.633-.633,8.858-16.451,8.858-34.8A54.973,54.973,0,0,0,64.558,18.1h0c0,.633-8.858,12.022-8.858,30.371s8.858,34.167,8.858,34.8Z" transform="translate(-55.7 96.579)"/><path class="b" d="M64.558,95.271h0c.633-.633,8.858-16.451,8.858-34.8A54.972,54.972,0,0,0,64.558,30.1h0c0,.633-8.858,12.022-8.858,30.371,0,18.982,8.858,34.167,8.858,34.8Z" transform="translate(-55.7 160.506)"/><path class="b" d="M64.558,41.7h0c-.633.633-8.858,12.022-8.858,30.371s8.858,34.167,8.858,34.8h0c0-.633,8.858-16.451,8.858-34.8C74.049,53.722,65.191,42.333,64.558,41.7Z" transform="translate(-55.7 222.302)"/><path class="b" d="M84.458,53.8h0c-.633.633-8.858,12.022-8.858,30.371s8.858,34.167,8.858,34.8h0c0-.633,8.858-16.451,8.858-34.8S84.458,54.433,84.458,53.8Z" transform="translate(50.313 286.762)"/><path class="b" d="M74.358,48.137h0c-.633.633-8.858,12.022-8.858,30.371s8.858,34.168,8.858,34.8h0c0-.633,8.858-16.451,8.858-34.8C83.849,59.526,74.991,48.137,74.358,48.137Z" transform="translate(-3.493 255.094)"/><path class="b" d="M67.7,86.446c.633,0,18.349,0,34.167-9.491S123.38,54.177,123.38,53.544h0c-.633,0-14.553-1.9-30.371,6.96C77.191,70.627,67.7,85.813,67.7,86.446Z" transform="translate(8.227 284.487)"/><path class="b" d="M123.38,92.3c0-.633-5.695-13.92-21.513-23.411S68.333,59.4,67.7,59.4h0c0,.633,9.491,15.818,25.309,25.309S123.38,92.3,123.38,92.3Z" transform="translate(8.227 316.595)"/><path class="b" d="M113.08,86.3c0-.633-5.695-13.92-21.513-23.411S58.033,53.4,57.4,53.4h0c0,.633,9.491,15.818,25.309,25.309S112.447,86.3,113.08,86.3Z" transform="translate(-46.644 284.631)"/><path class="b" d="M74.358,24.1h0c0,.633-8.858,12.022-8.858,30.371s8.858,34.167,8.858,34.8h0c0-.633,8.858-16.451,8.858-34.8.633-18.349-8.226-29.738-8.858-30.371Z" transform="translate(-3.493 128.542)"/><path class="b" d="M74.358,101.371h0c0-.633,8.858-16.451,8.858-34.8A54.973,54.973,0,0,0,74.358,36.2h0c0,.633-8.858,12.022-8.858,30.371s8.858,34.167,8.858,34.8Z" transform="translate(-3.493 193.002)"/><path class="b" d="M123.38,29.844c-.633,0-14.553-1.9-30.371,6.96C77.191,46.295,68.333,61.48,67.7,62.113h0c.633,0,18.349,0,34.167-9.491,15.818-8.858,21.513-22.145,21.513-22.778Z" transform="translate(8.227 158.231)"/><path class="b" d="M57.3,68.746h0c.633,0,18.349,0,34.167-9.491S112.98,36.477,112.98,35.844h0c-.633,0-14.553-1.9-30.371,6.96C66.791,52.295,57.933,68.113,57.3,68.746Z" transform="translate(-47.176 190.195)"/><path class="b" d="M123.38,68.6c0-.633-5.695-13.92-21.513-23.411S68.333,35.7,67.7,35.7h0c0,.633,9.491,15.818,25.309,25.309S123.38,68.6,123.38,68.6Z" transform="translate(8.227 190.338)"/><path class="b" d="M57.8,29.7c0,.633,9.491,15.818,25.309,25.309s30.371,7.593,30.371,6.96h0c0-.633-5.694-13.92-21.513-23.411C76.149,29.7,57.8,29.7,57.8,29.7Z" transform="translate(-47.043 158.375)"/><path class="b" d="M74.358,77.571h0c.633-.633,8.858-16.451,8.858-34.8A54.973,54.973,0,0,0,74.358,12.4h0c0,.633-8.858,12.022-8.858,30.371S74.358,76.938,74.358,77.571Z" transform="translate(-3.493 66.213)"/><path class="b" d="M67.7,38.946h0c.633,0,18.349,0,34.167-9.491S123.38,6.677,123.38,6.044h0c-.633,0-14.553-1.9-30.371,6.96C77.191,22.495,67.7,38.313,67.7,38.946Z" transform="translate(8.227 31.442)"/><path class="b" d="M57.3,44.946h0c.633,0,18.349,0,34.167-9.491S112.98,12.677,112.98,12.044h0c-.633,0-14.553-1.9-30.371,6.96C66.791,29.127,57.933,44.313,57.3,44.946Z" transform="translate(-47.176 63.406)"/><path class="b" d="M93.009,37.309c15.818,9.491,30.371,7.593,30.371,6.96h0c0-.633-5.695-13.92-21.513-23.411C86.049,12,68.333,12,67.7,12h0S77.191,27.818,93.009,37.309Z" transform="translate(8.227 64.082)"/><path class="b" d="M123.38,17.844c-.633,0-14.553-1.9-30.371,6.96C77.191,34.295,68.333,49.48,67.7,50.113h0c.633,0,18.349,0,34.167-9.491,15.818-8.858,21.513-22.145,21.513-22.778Z" transform="translate(8.227 94.304)"/><path class="b" d="M113.08,23.844c-.633,0-14.553-1.9-30.371,6.96C66.891,40.295,58.033,55.48,57.4,56.113h0c.633,0,18.349,0,34.167-9.491,15.818-8.858,21.513-22.145,21.513-22.778Z" transform="translate(-46.644 126.267)"/><path class="b" d="M67.7,23.7c0,.633,9.491,15.818,25.309,25.309s30.371,7.593,30.371,6.96h0c0-.633-5.695-13.92-21.513-23.411C86.049,24.333,68.333,23.7,67.7,23.7Z" transform="translate(8.227 126.411)"/><path class="b" d="M82.609,43.542c15.818,9.491,30.371,7.593,30.371,6.96h0c0-.633-5.694-13.92-21.513-23.411S57.933,17.6,57.3,17.6h0C57.933,18.866,66.791,34.684,82.609,43.542Z" transform="translate(-47.176 93.915)"/><path class="b" d="M67.7,74.546c.633,0,18.349,0,34.167-9.491S123.38,42.277,123.38,41.644h0c-.633,0-14.553-1.9-30.371,6.96C77.191,58.728,67.7,73.913,67.7,74.546Z" transform="translate(8.227 221.093)"/><path class="b" d="M57.4,80.546c.633,0,18.349,0,34.167-9.491S113.08,48.277,113.08,47.644h0c-.633,0-14.553-1.9-30.371,6.96C66.258,64.728,57.4,79.913,57.4,80.546Z" transform="translate(-46.644 253.056)"/><path class="b" d="M123.38,80.4c0-.633-5.695-13.92-21.513-23.411S68.333,47.5,67.7,47.5h0c0,.633,9.491,15.818,25.309,25.309S123.38,80.4,123.38,80.4Z" transform="translate(8.227 253.2)"/><path class="b" d="M113.08,74.4c0-.633-5.695-13.92-21.513-23.411S58.033,41.5,57.4,41.5h0c0,.633,9.491,15.818,25.309,25.309S112.447,74.4,113.08,74.4Z" transform="translate(-46.644 221.237)"/></g></svg>