<svg xmlns="http://www.w3.org/2000/svg" viewBox="0 0 150.361 79.12"><defs><style>.a{fill:#a2bc3a;}.a,.b,.c{fill-rule:evenodd;}.b,.d{fill:#729225;}.c{fill:#5a310e;}</style></defs><g transform="translate(0 0.024)"><g transform="translate(34.694 -0.024)"><path class="a" d="M86.472,54.316h0a8.541,8.541,0,0,0,.872-3.426,5.412,5.412,0,0,0-.872-2.99h0a5.671,5.671,0,0,0-.872,2.99,8.541,8.541,0,0,0,.872,3.426Z" transform="translate(-66.976 -18.049)"/><path class="a" d="M86.472,59.9h0a5.1,5.1,0,0,0-.872,2.99,8.541,8.541,0,0,0,.872,3.426h0a8.542,8.542,0,0,0,.872-3.426A5.1,5.1,0,0,0,86.472,59.9Z" transform="translate(-66.976 -22.575)"/><path class="a" d="M82.981,56.642A7.518,7.518,0,0,0,80.49,54.15a4.285,4.285,0,0,0-2.99-.685h0a5.043,5.043,0,0,0,2.118,2.3,7.423,7.423,0,0,0,3.364.872Z" transform="translate(-63.921 -20.126)"/><path class="a" d="M93.281,62.642A7.518,7.518,0,0,0,90.79,60.15a4.285,4.285,0,0,0-2.99-.685h0a5.043,5.043,0,0,0,2.118,2.3,7.586,7.586,0,0,0,3.364.872Z" transform="translate(-67.806 -22.389)"/><path class="a" d="M77.4,62.639h0a5.219,5.219,0,0,0,3.052-.747A8.31,8.31,0,0,0,82.944,59.4h0a7.173,7.173,0,0,0-3.363.934,4.972,4.972,0,0,0-2.18,2.3Z" transform="translate(-63.884 -22.386)"/><path class="a" d="M93.281,53.4h0a7.173,7.173,0,0,0-3.364.934,5.043,5.043,0,0,0-2.118,2.3h0a5.219,5.219,0,0,0,2.99-.685A7.428,7.428,0,0,0,93.281,53.4Z" transform="translate(-67.806 -20.123)"/><path class="a" d="M86.472,24.1h0a5.671,5.671,0,0,0-.872,2.99,8.541,8.541,0,0,0,.872,3.426h0a8.542,8.542,0,0,0,.872-3.426,5.1,5.1,0,0,0-.872-2.99Z" transform="translate(-66.976 -9.074)"/><path class="a" d="M86.472,42.616h0a8.542,8.542,0,0,0,.872-3.426,5.412,5.412,0,0,0-.872-2.99h0a5.671,5.671,0,0,0-.872,2.99,8.541,8.541,0,0,0,.872,3.426Z" transform="translate(-66.976 -13.637)"/><path class="a" d="M82.981,32.842A7.518,7.518,0,0,0,80.49,30.35a4.285,4.285,0,0,0-2.99-.685h0a5.043,5.043,0,0,0,2.118,2.3,7.423,7.423,0,0,0,3.364.872Z" transform="translate(-63.921 -11.15)"/><path class="a" d="M93.281,38.942A7.519,7.519,0,0,0,90.79,36.45a4.285,4.285,0,0,0-2.99-.685h0a5.043,5.043,0,0,0,2.118,2.3,8.7,8.7,0,0,0,3.364.872Z" transform="translate(-67.806 -13.451)"/><path class="a" d="M77.4,38.939h0a5.219,5.219,0,0,0,3.052-.747A8.31,8.31,0,0,0,82.944,35.7h0a7.173,7.173,0,0,0-3.363.934,4.972,4.972,0,0,0-2.18,2.3Z" transform="translate(-63.884 -13.448)"/><path class="a" d="M93.281,29.7h0a7.173,7.173,0,0,0-3.364.934,5.043,5.043,0,0,0-2.118,2.3h0a5.219,5.219,0,0,0,2.99-.685A8.044,8.044,0,0,0,93.281,29.7Z" transform="translate(-67.806 -11.185)"/><path class="a" d="M86.472,6.716h0a7.537,7.537,0,0,0,.872-3.426A5.412,5.412,0,0,0,86.472.3h0A5.671,5.671,0,0,0,85.6,3.29,7.819,7.819,0,0,0,86.472,6.716Z" transform="translate(-66.976 -0.098)"/><path class="a" d="M86.472,12.4h0a5.671,5.671,0,0,0-.872,2.99,8.541,8.541,0,0,0,.872,3.426h0a8.542,8.542,0,0,0,.872-3.426,4.888,4.888,0,0,0-.872-2.99Z" transform="translate(-66.976 -4.661)"/><path class="a" d="M96.37,12.816h0a7.537,7.537,0,0,0,.872-3.426A5.412,5.412,0,0,0,96.37,6.4h0A5.671,5.671,0,0,0,95.5,9.39,6.756,6.756,0,0,0,96.37,12.816Z" transform="translate(-70.708 -2.398)"/><path class="a" d="M96.372,18.4h0a5.671,5.671,0,0,0-.872,2.99,8.541,8.541,0,0,0,.872,3.426h0a8.542,8.542,0,0,0,.872-3.426,5.671,5.671,0,0,0-.872-2.99Z" transform="translate(-70.71 -6.924)"/><path class="a" d="M96.37,36.416h0a8.542,8.542,0,0,0,.872-3.426A5.412,5.412,0,0,0,96.37,30h0a5.671,5.671,0,0,0-.872,2.99,6.756,6.756,0,0,0,.872,3.426Z" transform="translate(-70.708 -11.299)"/><path class="a" d="M96.37,48.416h0a8.542,8.542,0,0,0,.872-3.426A5.412,5.412,0,0,0,96.37,42h0a5.671,5.671,0,0,0-.872,2.99,6.285,6.285,0,0,0,.872,3.426Z" transform="translate(-70.708 -15.824)"/><path class="a" d="M116.172,24.516h0a7.537,7.537,0,0,0,.872-3.426,5.412,5.412,0,0,0-.872-2.99h0a5.671,5.671,0,0,0-.872,2.99A8.541,8.541,0,0,0,116.172,24.516Z" transform="translate(-78.177 -6.811)"/><path class="a" d="M116.172,30.1h0a5.1,5.1,0,0,0-.872,2.99,8.542,8.542,0,0,0,.872,3.426h0a8.542,8.542,0,0,0,.872-3.426,4.644,4.644,0,0,0-.872-2.99Z" transform="translate(-78.177 -11.336)"/><path class="a" d="M116.172,41.7h0a5.1,5.1,0,0,0-.872,2.99,8.542,8.542,0,0,0,.872,3.426h0a8.542,8.542,0,0,0,.872-3.426,4.644,4.644,0,0,0-.872-2.99Z" transform="translate(-78.177 -15.711)"/><path class="a" d="M96.372,53.8h0a5.1,5.1,0,0,0-.872,2.99,8.541,8.541,0,0,0,.872,3.426h0a8.542,8.542,0,0,0,.872-3.426A5.671,5.671,0,0,0,96.372,53.8Z" transform="translate(-70.71 -20.274)"/><path class="a" d="M77.4,5.891a5.043,5.043,0,0,0,2.118,2.3,7.173,7.173,0,0,0,3.364.934h0A7.518,7.518,0,0,0,80.39,6.638a4.993,4.993,0,0,0-2.99-.747Z" transform="translate(-63.884 -2.201)"/><path class="a" d="M87.8,11.966a5.043,5.043,0,0,0,2.118,2.3,7.173,7.173,0,0,0,3.364.934h0a7.519,7.519,0,0,0-2.492-2.491,4.147,4.147,0,0,0-2.99-.747Z" transform="translate(-67.806 -4.477)"/><path class="a" d="M77.4,15.177h0a5.456,5.456,0,0,0,3.052-.685A8.31,8.31,0,0,0,82.944,12h0a7.173,7.173,0,0,0-3.363.934,4.7,4.7,0,0,0-2.18,2.242Z" transform="translate(-63.884 -4.51)"/><path class="a" d="M93.281,5.9h0a7.173,7.173,0,0,0-3.364.934,5.043,5.043,0,0,0-2.118,2.3h0a5.219,5.219,0,0,0,2.99-.685A7.428,7.428,0,0,0,93.281,5.9Z" transform="translate(-67.806 -2.21)"/><path class="a" d="M87.8-.009a5.043,5.043,0,0,0,2.118,2.3,7.173,7.173,0,0,0,3.364.934h0A7.519,7.519,0,0,0,90.79.738,5.058,5.058,0,0,0,87.8-.009Z" transform="translate(-67.806 0.024)"/><path class="a" d="M77.4,3.239h0a5.219,5.219,0,0,0,3.052-.747A8.31,8.31,0,0,0,82.944,0h0A7.173,7.173,0,0,0,79.58.934a4.972,4.972,0,0,0-2.18,2.3Z" transform="translate(-63.884 0.015)"/><path class="a" d="M77.4,17.691A5.043,5.043,0,0,0,79.518,20a7.173,7.173,0,0,0,3.364.934h0a7.518,7.518,0,0,0-2.492-2.491,4.993,4.993,0,0,0-2.99-.747Z" transform="translate(-63.884 -6.651)"/><path class="a" d="M87.8,23.691A5.043,5.043,0,0,0,89.918,26a7.173,7.173,0,0,0,3.364.934h0a7.519,7.519,0,0,0-2.492-2.491,5.058,5.058,0,0,0-2.99-.747Z" transform="translate(-67.806 -8.913)"/><path class="a" d="M77.4,26.977h0a5.456,5.456,0,0,0,3.052-.685A8.31,8.31,0,0,0,82.944,23.8h0a7.173,7.173,0,0,0-3.363.934,4.7,4.7,0,0,0-2.18,2.242Z" transform="translate(-63.884 -8.96)"/><path class="a" d="M93.281,17.7h0a7.173,7.173,0,0,0-3.364.934,5.043,5.043,0,0,0-2.118,2.3h0a5.219,5.219,0,0,0,2.99-.685A7.428,7.428,0,0,0,93.281,17.7Z" transform="translate(-67.806 -6.66)"/><path class="a" d="M82.981,44.742A7.519,7.519,0,0,0,80.49,42.25a4.285,4.285,0,0,0-2.99-.685h0a5.043,5.043,0,0,0,2.118,2.3,7.423,7.423,0,0,0,3.364.872Z" transform="translate(-63.921 -15.638)"/><path class="a" d="M93.281,50.742A7.519,7.519,0,0,0,90.79,48.25a4.285,4.285,0,0,0-2.99-.685h0a5.043,5.043,0,0,0,2.118,2.3,7.586,7.586,0,0,0,3.364.872Z" transform="translate(-67.806 -17.901)"/><path class="a" d="M77.4,50.739h0a5.219,5.219,0,0,0,3.052-.747A8.31,8.31,0,0,0,82.944,47.5h0a7.173,7.173,0,0,0-3.363.934,5.294,5.294,0,0,0-2.18,2.3Z" transform="translate(-63.884 -17.898)"/><path class="a" d="M93.281,41.5h0a7.173,7.173,0,0,0-3.364.934,5.043,5.043,0,0,0-2.118,2.3h0a5.219,5.219,0,0,0,2.99-.685A7.428,7.428,0,0,0,93.281,41.5Z" transform="translate(-67.806 -15.636)"/><path class="a" d="M82.981,68.542A7.518,7.518,0,0,0,80.49,66.05a4.285,4.285,0,0,0-2.99-.685h0a5.043,5.043,0,0,0,2.118,2.3,7.423,7.423,0,0,0,3.364.872Z" transform="translate(-63.921 -24.614)"/><path class="a" d="M93.281,65.3h0a7.173,7.173,0,0,0-3.364.934,5.043,5.043,0,0,0-2.118,2.3h0a5.219,5.219,0,0,0,2.99-.685A7.428,7.428,0,0,0,93.281,65.3Z" transform="translate(-67.806 -24.611)"/><path class="a" d="M106.372,47.9h0a5.1,5.1,0,0,0-.872,2.99,8.541,8.541,0,0,0,.872,3.426h0a8.541,8.541,0,0,0,.872-3.426A5.168,5.168,0,0,0,106.372,47.9Z" transform="translate(-74.481 -18.049)"/><path class="a" d="M102.781,56.642a7.519,7.519,0,0,0-2.492-2.491,4.285,4.285,0,0,0-2.99-.685h0a5.043,5.043,0,0,0,2.118,2.3,7.586,7.586,0,0,0,3.364.872Z" transform="translate(-71.389 -20.126)"/><path class="a" d="M102.781,59.5h0a7.173,7.173,0,0,0-3.364.934,5.043,5.043,0,0,0-2.118,2.3h0a5.219,5.219,0,0,0,2.99-.685,7.9,7.9,0,0,0,2.492-2.554Z" transform="translate(-71.389 -22.424)"/><path class="a" d="M113.181,53.4h0a7.173,7.173,0,0,0-3.364.934,5.043,5.043,0,0,0-2.118,2.3h0a5.219,5.219,0,0,0,2.99-.685,8.182,8.182,0,0,0,2.491-2.554Z" transform="translate(-75.311 -20.123)"/><path class="a" d="M106.372,24.1h0a5.671,5.671,0,0,0-.872,2.99,8.542,8.542,0,0,0,.872,3.426h0a8.541,8.541,0,0,0,.872-3.426,5.671,5.671,0,0,0-.872-2.99Z" transform="translate(-74.481 -9.074)"/><path class="a" d="M106.37,42.616h0a8.541,8.541,0,0,0,.872-3.426,5.412,5.412,0,0,0-.872-2.99h0a5.671,5.671,0,0,0-.872,2.99,6.756,6.756,0,0,0,.872,3.426Z" transform="translate(-74.479 -13.637)"/><path class="a" d="M97.3,29.691A5.043,5.043,0,0,0,99.418,32a7.172,7.172,0,0,0,3.364.934h0a7.519,7.519,0,0,0-2.492-2.491,4.994,4.994,0,0,0-2.99-.747Z" transform="translate(-71.389 -11.176)"/><path class="a" d="M113.181,38.942a7.519,7.519,0,0,0-2.491-2.491,4.285,4.285,0,0,0-2.99-.685h0a5.043,5.043,0,0,0,2.118,2.3,8.7,8.7,0,0,0,3.364.872Z" transform="translate(-75.311 -13.451)"/><path class="a" d="M102.781,35.7h0a7.173,7.173,0,0,0-3.364.934,5.043,5.043,0,0,0-2.118,2.3h0a5.219,5.219,0,0,0,2.99-.685,7.3,7.3,0,0,0,2.492-2.554Z" transform="translate(-71.389 -13.448)"/><path class="a" d="M113.181,29.7h0a7.173,7.173,0,0,0-3.364.934,5.043,5.043,0,0,0-2.118,2.3h0a5.219,5.219,0,0,0,2.99-.685,8.946,8.946,0,0,0,2.491-2.554Z" transform="translate(-75.311 -11.185)"/><path class="a" d="M106.37,18.816h0a7.537,7.537,0,0,0,.872-3.426,5.412,5.412,0,0,0-.872-2.99h0a5.671,5.671,0,0,0-.872,2.99A6.756,6.756,0,0,0,106.37,18.816Z" transform="translate(-74.479 -4.661)"/><path class="a" d="M97.3,5.891a5.043,5.043,0,0,0,2.118,2.3,7.173,7.173,0,0,0,3.364.934h0a7.519,7.519,0,0,0-2.492-2.491,4.993,4.993,0,0,0-2.99-.747Z" transform="translate(-71.389 -2.201)"/><path class="a" d="M107.6,11.966a5.043,5.043,0,0,0,2.118,2.3,7.172,7.172,0,0,0,3.363.934h0a7.518,7.518,0,0,0-2.491-2.491,4.083,4.083,0,0,0-2.99-.747Z" transform="translate(-75.273 -4.477)"/><path class="a" d="M102.781,11.9h0a7.173,7.173,0,0,0-3.364.934,5.043,5.043,0,0,0-2.118,2.3h0a5.219,5.219,0,0,0,2.99-.685,6.8,6.8,0,0,0,2.492-2.554Z" transform="translate(-71.389 -4.473)"/><path class="a" d="M97.3,17.691A5.043,5.043,0,0,0,99.418,20a7.173,7.173,0,0,0,3.364.934h0a7.519,7.519,0,0,0-2.492-2.491,4.993,4.993,0,0,0-2.99-.747Z" transform="translate(-71.389 -6.651)"/><path class="a" d="M107.6,23.691a5.043,5.043,0,0,0,2.118,2.3,7.173,7.173,0,0,0,3.363.934h0a7.518,7.518,0,0,0-2.491-2.491,4.93,4.93,0,0,0-2.99-.747Z" transform="translate(-75.273 -8.913)"/><path class="a" d="M102.781,23.7h0a7.173,7.173,0,0,0-3.364.934,5.043,5.043,0,0,0-2.118,2.3h0a5.219,5.219,0,0,0,2.99-.685,6.8,6.8,0,0,0,2.492-2.554Z" transform="translate(-71.389 -8.923)"/><path class="a" d="M113.181,17.7h0a7.173,7.173,0,0,0-3.364.934,5.043,5.043,0,0,0-2.118,2.3h0a5.219,5.219,0,0,0,2.99-.685,8.182,8.182,0,0,0,2.491-2.554Z" transform="translate(-75.311 -6.66)"/><path class="a" d="M102.781,44.742a7.519,7.519,0,0,0-2.492-2.491,4.285,4.285,0,0,0-2.99-.685h0a5.043,5.043,0,0,0,2.118,2.3,7.586,7.586,0,0,0,3.364.872Z" transform="translate(-71.389 -15.638)"/><path class="a" d="M113.181,50.742a7.519,7.519,0,0,0-2.491-2.491,4.285,4.285,0,0,0-2.99-.685h0a5.043,5.043,0,0,0,2.118,2.3,7.586,7.586,0,0,0,3.364.872Z" transform="translate(-75.311 -17.901)"/><path class="a" d="M102.781,47.6h0a7.173,7.173,0,0,0-3.364.934,5.043,5.043,0,0,0-2.118,2.3h0a5.219,5.219,0,0,0,2.99-.685,7.3,7.3,0,0,0,2.492-2.554Z" transform="translate(-71.389 -17.936)"/><path class="a" d="M113.181,41.5h0a7.173,7.173,0,0,0-3.364.934,5.043,5.043,0,0,0-2.118,2.3h0a5.219,5.219,0,0,0,2.99-.685,8.182,8.182,0,0,0,2.491-2.554Z" transform="translate(-75.311 -15.636)"/><path class="a" d="M76.47,12.816h0a7.537,7.537,0,0,0,.872-3.426A5.412,5.412,0,0,0,76.47,6.4h0A5.671,5.671,0,0,0,75.6,9.39,6.755,6.755,0,0,0,76.47,12.816Z" transform="translate(-63.203 -2.398)"/><path class="a" d="M76.472,18.4h0a5.671,5.671,0,0,0-.872,2.99,8.542,8.542,0,0,0,.872,3.426h0a8.541,8.541,0,0,0,.872-3.426,5.671,5.671,0,0,0-.872-2.99Z" transform="translate(-63.205 -6.924)"/><path class="a" d="M76.47,36.416h0a8.542,8.542,0,0,0,.872-3.426A5.412,5.412,0,0,0,76.47,30h0a5.671,5.671,0,0,0-.872,2.99,6.755,6.755,0,0,0,.872,3.426Z" transform="translate(-63.203 -11.299)"/><path class="a" d="M76.47,48.416h0a8.542,8.542,0,0,0,.872-3.426A5.412,5.412,0,0,0,76.47,42h0a5.671,5.671,0,0,0-.872,2.99,6.284,6.284,0,0,0,.872,3.426Z" transform="translate(-63.203 -15.824)"/><path class="a" d="M56.572,24.516h0a7.537,7.537,0,0,0,.872-3.426,5.412,5.412,0,0,0-.872-2.99h0a5.671,5.671,0,0,0-.872,2.99,8.541,8.541,0,0,0,.872,3.426Z" transform="translate(-55.7 -6.811)"/><path class="a" d="M56.572,36.516h0a7.537,7.537,0,0,0,.872-3.426,5.412,5.412,0,0,0-.872-2.99h0a5.671,5.671,0,0,0-.872,2.99,8.169,8.169,0,0,0,.872,3.426Z" transform="translate(-55.7 -11.336)"/><path class="a" d="M56.572,41.7h0a5.1,5.1,0,0,0-.872,2.99,8.541,8.541,0,0,0,.872,3.426h0a8.542,8.542,0,0,0,.872-3.426A4.644,4.644,0,0,0,56.572,41.7Z" transform="translate(-55.7 -15.711)"/><path class="a" d="M76.472,53.8h0a5.1,5.1,0,0,0-.872,2.99,8.542,8.542,0,0,0,.872,3.426h0a8.541,8.541,0,0,0,.872-3.426A5.671,5.671,0,0,0,76.472,53.8Z" transform="translate(-63.205 -20.274)"/><path class="a" d="M66.372,47.883h0a5.1,5.1,0,0,0-.872,2.99,8.541,8.541,0,0,0,.872,3.426h0a8.541,8.541,0,0,0,.872-3.426A4.3,4.3,0,0,0,66.372,47.883Z" transform="translate(-59.396 -18.032)"/><path class="a" d="M67.7,56.629a7.173,7.173,0,0,0,3.364-.934,5.043,5.043,0,0,0,2.118-2.3h0a5.219,5.219,0,0,0-2.99.685A8.044,8.044,0,0,0,67.7,56.629Z" transform="translate(-60.226 -20.113)"/><path class="a" d="M73.181,62.639a5.043,5.043,0,0,0-2.118-2.3A7.173,7.173,0,0,0,67.7,59.4h0a7.519,7.519,0,0,0,2.492,2.491,5.058,5.058,0,0,0,2.99.747Z" transform="translate(-60.226 -22.386)"/><path class="a" d="M62.881,56.639a5.043,5.043,0,0,0-2.118-2.3A7.173,7.173,0,0,0,57.4,53.4h0a7.519,7.519,0,0,0,2.491,2.491,4.993,4.993,0,0,0,2.99.747Z" transform="translate(-56.341 -20.123)"/><path class="a" d="M66.372,24.1h0a5.671,5.671,0,0,0-.872,2.99,8.541,8.541,0,0,0,.872,3.426h0a8.541,8.541,0,0,0,.872-3.426,4.644,4.644,0,0,0-.872-2.99Z" transform="translate(-59.396 -9.074)"/><path class="a" d="M66.372,42.616h0a8.542,8.542,0,0,0,.872-3.426,5.412,5.412,0,0,0-.872-2.99h0a5.671,5.671,0,0,0-.872,2.99,8.542,8.542,0,0,0,.872,3.426Z" transform="translate(-59.396 -13.637)"/><path class="a" d="M73.181,29.69a5.219,5.219,0,0,0-2.99.685A8.31,8.31,0,0,0,67.7,32.866h0a7.173,7.173,0,0,0,3.364-.934,4.759,4.759,0,0,0,2.118-2.242Z" transform="translate(-60.226 -11.175)"/><path class="a" d="M57.3,38.929h0a7.173,7.173,0,0,0,3.364-.934,5.043,5.043,0,0,0,2.118-2.3h0a5.219,5.219,0,0,0-2.99.685A8.182,8.182,0,0,0,57.3,38.929Z" transform="translate(-56.303 -13.438)"/><path class="a" d="M73.181,38.939a5.043,5.043,0,0,0-2.118-2.3A7.173,7.173,0,0,0,67.7,35.7h0a7.519,7.519,0,0,0,2.492,2.491,5.058,5.058,0,0,0,2.99.747Z" transform="translate(-60.226 -13.448)"/><path class="a" d="M57.372,29.7a7.518,7.518,0,0,0,2.491,2.491,4.285,4.285,0,0,0,2.99.685h0a5.043,5.043,0,0,0-2.118-2.3,7.758,7.758,0,0,0-3.364-.872Z" transform="translate(-56.313 -11.185)"/><path class="a" d="M66.372,18.816h0a7.537,7.537,0,0,0,.872-3.426,5.412,5.412,0,0,0-.872-2.99h0a5.671,5.671,0,0,0-.872,2.99A8.542,8.542,0,0,0,66.372,18.816Z" transform="translate(-59.396 -4.661)"/><path class="a" d="M67.7,9.129h0a7.173,7.173,0,0,0,3.364-.934,5.043,5.043,0,0,0,2.118-2.3h0a5.219,5.219,0,0,0-2.99.685A7.428,7.428,0,0,0,67.7,9.129Z" transform="translate(-60.226 -2.2)"/><path class="a" d="M57.3,15.129h0a7.173,7.173,0,0,0,3.364-.934,5.043,5.043,0,0,0,2.118-2.3h0a5.219,5.219,0,0,0-2.99.685A8.946,8.946,0,0,0,57.3,15.129Z" transform="translate(-56.303 -4.462)"/><path class="a" d="M70.191,14.491a4.285,4.285,0,0,0,2.99.685h0a5.043,5.043,0,0,0-2.118-2.3A7.586,7.586,0,0,0,67.7,12h0A8.184,8.184,0,0,0,70.191,14.491Z" transform="translate(-60.226 -4.51)"/><path class="a" d="M73.181,17.69a5.219,5.219,0,0,0-2.99.685A8.31,8.31,0,0,0,67.7,20.866h0a7.173,7.173,0,0,0,3.364-.934,4.759,4.759,0,0,0,2.118-2.242Z" transform="translate(-60.226 -6.65)"/><path class="a" d="M62.881,23.69a5.219,5.219,0,0,0-2.99.685A8.31,8.31,0,0,0,57.4,26.866h0a7.173,7.173,0,0,0,3.364-.934,4.759,4.759,0,0,0,2.118-2.242Z" transform="translate(-56.341 -8.912)"/><path class="a" d="M67.7,23.7a7.519,7.519,0,0,0,2.492,2.491,4.285,4.285,0,0,0,2.99.685h0a5.043,5.043,0,0,0-2.118-2.3A8.7,8.7,0,0,0,67.7,23.7Z" transform="translate(-60.226 -8.923)"/><path class="a" d="M59.791,20.154a4.285,4.285,0,0,0,2.99.685h0a5.043,5.043,0,0,0-2.118-2.3A7.173,7.173,0,0,0,57.3,17.6h0A7.017,7.017,0,0,0,59.791,20.154Z" transform="translate(-56.303 -6.622)"/><path class="a" d="M67.7,44.729a7.173,7.173,0,0,0,3.364-.934,5.043,5.043,0,0,0,2.118-2.3h0a5.219,5.219,0,0,0-2.99.685A8.044,8.044,0,0,0,67.7,44.729Z" transform="translate(-60.226 -15.625)"/><path class="a" d="M57.4,50.729a7.173,7.173,0,0,0,3.364-.934,5.043,5.043,0,0,0,2.118-2.3h0a5.219,5.219,0,0,0-2.99.685A7.3,7.3,0,0,0,57.4,50.729Z" transform="translate(-56.341 -17.888)"/><path class="a" d="M73.181,50.739a5.043,5.043,0,0,0-2.118-2.3A7.173,7.173,0,0,0,67.7,47.5h0a7.519,7.519,0,0,0,2.492,2.491,5.059,5.059,0,0,0,2.99.747Z" transform="translate(-60.226 -17.898)"/><path class="a" d="M62.881,44.739a5.043,5.043,0,0,0-2.118-2.3A7.173,7.173,0,0,0,57.4,41.5h0a7.518,7.518,0,0,0,2.491,2.491,4.994,4.994,0,0,0,2.99.747Z" transform="translate(-56.341 -15.636)"/></g><g transform="translate(32.576 1.797)"><path class="b" d="M96.366,51.744a7.5,7.5,0,0,0-.934-3.426A5.427,5.427,0,0,0,93.19,46.2h0a5.39,5.39,0,0,0,.685,3.052,9.142,9.142,0,0,0,2.491,2.492Z" transform="translate(-67.714 -19.23)"/><path class="b" d="M102.366,62.144a7.5,7.5,0,0,0-.934-3.426A5.427,5.427,0,0,0,99.19,56.6h0a5.455,5.455,0,0,0,.685,3.052,7.518,7.518,0,0,0,2.491,2.491Z" transform="translate(-69.977 -23.152)"/><path class="b" d="M94.053,55.234A7.681,7.681,0,0,0,90.69,54.3a4.913,4.913,0,0,0-2.99.934h0a5.422,5.422,0,0,0,2.99.934,6.853,6.853,0,0,0,3.363-.934Z" transform="translate(-65.65 -22.284)"/><path class="b" d="M106.016,55.234h0a6.938,6.938,0,0,0-3.426-.934,4.913,4.913,0,0,0-2.99.934h0a5.422,5.422,0,0,0,2.99.934,7.22,7.22,0,0,0,3.426-.934Z" transform="translate(-70.138 -22.284)"/><path class="b" d="M95.524,60.026a7.344,7.344,0,0,0,.934-3.426h0a7.519,7.519,0,0,0-2.492,2.491,4.845,4.845,0,0,0-.685,3.052h0A5.427,5.427,0,0,0,95.524,60.026Z" transform="translate(-67.744 -23.152)"/><path class="b" d="M99.19,51.744h0a4.759,4.759,0,0,0,2.242-2.118,7.344,7.344,0,0,0,.934-3.426h0a7.518,7.518,0,0,0-2.491,2.491,5.39,5.39,0,0,0-.685,3.052Z" transform="translate(-69.977 -19.23)"/><path class="b" d="M102.066,41.744a7.5,7.5,0,0,0-.934-3.426A5.427,5.427,0,0,0,98.89,36.2h0a5.39,5.39,0,0,0,.685,3.052,8.31,8.31,0,0,0,2.491,2.491Z" transform="translate(-69.864 -15.458)"/><path class="b" d="M107.866,51.944a7.5,7.5,0,0,0-.934-3.426A5.427,5.427,0,0,0,104.69,46.4h0a5.456,5.456,0,0,0,.685,3.052,8.31,8.31,0,0,0,2.491,2.491Z" transform="translate(-72.051 -19.305)"/><path class="b" d="M88.116,45.034h0A6.937,6.937,0,0,0,84.69,44.1a4.913,4.913,0,0,0-2.99.934h0a5.422,5.422,0,0,0,2.99.934,8.828,8.828,0,0,0,3.426-.934Z" transform="translate(-63.388 -18.438)"/><path class="b" d="M100.053,45.034h0A6.853,6.853,0,0,0,96.69,44.1a4.913,4.913,0,0,0-2.99.934h0a5.422,5.422,0,0,0,2.99.934A8.332,8.332,0,0,0,100.053,45.034Z" transform="translate(-67.913 -18.438)"/><path class="b" d="M87.29,51.844h0a4.758,4.758,0,0,0,2.242-2.118,7.344,7.344,0,0,0,.934-3.426h0a7.518,7.518,0,0,0-2.491,2.492,5.522,5.522,0,0,0-.685,3.052Z" transform="translate(-65.489 -19.267)"/><path class="b" d="M99.953,65.534A7.681,7.681,0,0,0,96.59,64.6a4.913,4.913,0,0,0-2.99.934h0a5.422,5.422,0,0,0,2.99.934,6.853,6.853,0,0,0,3.364-.934Z" transform="translate(-67.875 -26.169)"/><path class="b" d="M108.258,56.5h0a8.31,8.31,0,0,0-2.492,2.491,4.845,4.845,0,0,0-.685,3.052h0a4.758,4.758,0,0,0,2.242-2.118,7.5,7.5,0,0,0,.934-3.426Z" transform="translate(-72.194 -23.114)"/><path class="b" d="M112.732,38.318A5.427,5.427,0,0,0,110.49,36.2h0a5.39,5.39,0,0,0,.685,3.052,7.519,7.519,0,0,0,2.492,2.491h0A9.605,9.605,0,0,0,112.732,38.318Z" transform="translate(-74.239 -15.458)"/><path class="b" d="M111.253,45.234a7.682,7.682,0,0,0-3.364-.934,4.913,4.913,0,0,0-2.99.934h0a5.422,5.422,0,0,0,2.99.934,6.853,6.853,0,0,0,3.364-.934Z" transform="translate(-72.137 -18.513)"/><path class="b" d="M113.558,46.6h0a8.31,8.31,0,0,0-2.491,2.491,4.845,4.845,0,0,0-.685,3.052h0a4.758,4.758,0,0,0,2.242-2.118,7.5,7.5,0,0,0,.934-3.426Z" transform="translate(-74.193 -19.38)"/><path class="b" d="M119.558,36.1h0a7.519,7.519,0,0,0-2.491,2.491,4.845,4.845,0,0,0-.685,3.052h0a4.758,4.758,0,0,0,2.242-2.118,7.344,7.344,0,0,0,.934-3.426Z" transform="translate(-76.456 -15.421)"/><path class="b" d="M104.49,41.844h0a4.758,4.758,0,0,0,2.242-2.118,7.344,7.344,0,0,0,.934-3.426h0a7.518,7.518,0,0,0-2.492,2.491,5.39,5.39,0,0,0-.685,3.052Z" transform="translate(-71.976 -15.496)"/><path class="b" d="M82.35,49.252a7.518,7.518,0,0,0,2.492,2.492h0a7.5,7.5,0,0,0-.934-3.426A5.427,5.427,0,0,0,81.665,46.2h0A4.405,4.405,0,0,0,82.35,49.252Z" transform="translate(-63.353 -19.23)"/><path class="b" d="M66.532,58.118A5.427,5.427,0,0,0,64.29,56h0a5.39,5.39,0,0,0,.685,3.052,7.518,7.518,0,0,0,2.491,2.491h0A7.191,7.191,0,0,0,66.532,58.118Z" transform="translate(-56.815 -22.925)"/><path class="b" d="M89.732,58.518A5.427,5.427,0,0,0,87.49,56.4h0a5.39,5.39,0,0,0,.685,3.052,7.518,7.518,0,0,0,2.491,2.491h0A7.5,7.5,0,0,0,89.732,58.518Z" transform="translate(-65.565 -23.076)"/><path class="b" d="M78.132,58.418A5.427,5.427,0,0,0,75.89,56.3h0a5.39,5.39,0,0,0,.685,3.052,7.518,7.518,0,0,0,2.492,2.491h0A8.542,8.542,0,0,0,78.132,58.418Z" transform="translate(-61.19 -23.039)"/><path class="b" d="M84.291,59.352a4.845,4.845,0,0,0,.685-3.052h0a4.758,4.758,0,0,0-2.242,2.118,7.344,7.344,0,0,0-.934,3.426h0A7.518,7.518,0,0,0,84.291,59.352Z" transform="translate(-63.425 -23.039)"/><path class="b" d="M88.653,65.434a5.422,5.422,0,0,0-2.99-.934,6.583,6.583,0,0,0-3.364.934h0a7.682,7.682,0,0,0,3.364.934,6.064,6.064,0,0,0,2.99-.934Z" transform="translate(-63.614 -26.131)"/><path class="b" d="M76.653,65.434a5.422,5.422,0,0,0-2.99-.934,6.582,6.582,0,0,0-3.364.934h0a7.681,7.681,0,0,0,3.364.934,5.481,5.481,0,0,0,2.99-.934Z" transform="translate(-59.088 -26.131)"/><path class="b" d="M76.853,44.834h0a4.913,4.913,0,0,0-2.99-.934,6.583,6.583,0,0,0-3.364.934h0a7.681,7.681,0,0,0,3.364.934A6.064,6.064,0,0,0,76.853,44.834Z" transform="translate(-59.164 -18.362)"/><path class="b" d="M82.15,28.652a7.518,7.518,0,0,0,2.491,2.491h0a7.5,7.5,0,0,0-.934-3.426A5.427,5.427,0,0,0,81.465,25.6h0A4.436,4.436,0,0,0,82.15,28.652Z" transform="translate(-63.277 -11.461)"/><path class="b" d="M90.566,41.544a7.5,7.5,0,0,0-.934-3.426A5.427,5.427,0,0,0,87.39,36h0a5.456,5.456,0,0,0,.685,3.052,7.4,7.4,0,0,0,2.491,2.492Z" transform="translate(-65.527 -15.383)"/><path class="b" d="M82.216,34.734h0A6.938,6.938,0,0,0,78.79,33.8a4.914,4.914,0,0,0-2.99.934h0a5.422,5.422,0,0,0,2.99.934,8.828,8.828,0,0,0,3.426-.934Z" transform="translate(-61.163 -14.553)"/><path class="b" d="M94.253,34.734h0A6.853,6.853,0,0,0,90.89,33.8a4.914,4.914,0,0,0-2.99.934h0a5.422,5.422,0,0,0,2.99.934A9.219,9.219,0,0,0,94.253,34.734Z" transform="translate(-65.726 -14.553)"/><path class="b" d="M81.465,41.644h0a4.758,4.758,0,0,0,2.242-2.118,7.344,7.344,0,0,0,.934-3.426h0a7.518,7.518,0,0,0-2.491,2.491,4.405,4.405,0,0,0-.685,3.052Z" transform="translate(-63.277 -15.421)"/><path class="b" d="M90.558,25.6a7.518,7.518,0,0,0-2.492,2.491,4.845,4.845,0,0,0-.685,3.052h0a4.758,4.758,0,0,0,2.242-2.118,7.5,7.5,0,0,0,.934-3.426Z" transform="translate(-65.519 -11.461)"/><path class="b" d="M70.375,8.052a7.519,7.519,0,0,0,2.491,2.491h0a7.5,7.5,0,0,0-.934-3.426A5.066,5.066,0,0,0,69.69,5h0A5.39,5.39,0,0,0,70.375,8.052Z" transform="translate(-58.852 -3.692)"/><path class="b" d="M76.35,18.452a7.518,7.518,0,0,0,2.491,2.491h0a7.5,7.5,0,0,0-.934-3.426A5.427,5.427,0,0,0,75.665,15.4h0A4.405,4.405,0,0,0,76.35,18.452Z" transform="translate(-61.09 -7.614)"/><path class="b" d="M81.875,8.252a7.519,7.519,0,0,0,2.491,2.491h0a7.5,7.5,0,0,0-.934-3.426A5.427,5.427,0,0,0,81.19,5.2h0A5.39,5.39,0,0,0,81.875,8.252Z" transform="translate(-63.189 -3.767)"/><path class="b" d="M87.875,18.752a7.519,7.519,0,0,0,2.492,2.491h0a7.5,7.5,0,0,0-.934-3.426A5.427,5.427,0,0,0,87.19,15.7h0A5.455,5.455,0,0,0,87.875,18.752Z" transform="translate(-65.452 -7.727)"/><path class="b" d="M93.575,28.752a7.519,7.519,0,0,0,2.491,2.491h0a7.5,7.5,0,0,0-.934-3.426A5.427,5.427,0,0,0,92.89,25.7h0A5.39,5.39,0,0,0,93.575,28.752Z" transform="translate(-67.601 -11.499)"/><path class="b" d="M104.875,8.452a7.518,7.518,0,0,0,2.492,2.491h0a7.5,7.5,0,0,0-.934-3.426A5.427,5.427,0,0,0,104.19,5.4h0A5.522,5.522,0,0,0,104.875,8.452Z" transform="translate(-71.863 -3.843)"/><path class="b" d="M110.867,18.852a7.518,7.518,0,0,0,2.492,2.491h0a7.5,7.5,0,0,0-.934-3.426,5.427,5.427,0,0,0-2.242-2.118h0A4.845,4.845,0,0,0,110.867,18.852Z" transform="translate(-74.117 -7.765)"/><path class="b" d="M116.575,28.852a7.518,7.518,0,0,0,2.491,2.491h0a7.5,7.5,0,0,0-.934-3.426A5.427,5.427,0,0,0,115.89,25.8h0A5.39,5.39,0,0,0,116.575,28.852Z" transform="translate(-76.275 -11.536)"/><path class="b" d="M64.1,14.134h0a4.913,4.913,0,0,0,2.99.934,6.583,6.583,0,0,0,3.364-.934h0A7.682,7.682,0,0,0,67.09,13.2a4.913,4.913,0,0,0-2.99.934Z" transform="translate(-56.75 -6.784)"/><path class="b" d="M76.1,14.134h0a4.913,4.913,0,0,0,2.99.934,6.583,6.583,0,0,0,3.364-.934h0A7.681,7.681,0,0,0,79.09,13.2a4.52,4.52,0,0,0-2.99.934Z" transform="translate(-61.276 -6.784)"/><path class="b" d="M72.858,15.483a7.519,7.519,0,0,0-2.492,2.491,4.845,4.845,0,0,0-.685,3.052h0a4.759,4.759,0,0,0,2.242-2.118,7.673,7.673,0,0,0,.934-3.426Z" transform="translate(-58.844 -7.635)"/><path class="b" d="M76.367,7.491a4.845,4.845,0,0,0-.685,3.052h0a4.759,4.759,0,0,0,2.242-2.118A8.321,8.321,0,0,0,78.858,5h0A7.629,7.629,0,0,0,76.367,7.491Z" transform="translate(-61.107 -3.692)"/><path class="b" d="M70.2,3.834a5.422,5.422,0,0,0,2.99.934,6.583,6.583,0,0,0,3.364-.934h0A7.682,7.682,0,0,0,73.19,2.9a4.52,4.52,0,0,0-2.99.934Z" transform="translate(-59.051 -2.9)"/><path class="b" d="M63.79,10.744h0a4.759,4.759,0,0,0,2.242-2.118A7.344,7.344,0,0,0,66.966,5.2h0a7.518,7.518,0,0,0-2.491,2.491,5.39,5.39,0,0,0-.685,3.052Z" transform="translate(-56.627 -3.767)"/><path class="b" d="M70,24.334h0a4.914,4.914,0,0,0,2.99.934,6.583,6.583,0,0,0,3.363-.934h0A7.682,7.682,0,0,0,72.99,23.4,5.481,5.481,0,0,0,70,24.334Z" transform="translate(-58.975 -10.631)"/><path class="b" d="M81.9,24.334h0a4.914,4.914,0,0,0,2.99.934,6.583,6.583,0,0,0,3.364-.934h0A7.681,7.681,0,0,0,84.89,23.4,6.065,6.065,0,0,0,81.9,24.334Z" transform="translate(-63.463 -10.631)"/><path class="b" d="M77.824,29.026a7.344,7.344,0,0,0,.934-3.426h0a7.518,7.518,0,0,0-2.491,2.491,4.845,4.845,0,0,0-.685,3.052h0A4.533,4.533,0,0,0,77.824,29.026Z" transform="translate(-61.069 -11.461)"/><path class="b" d="M84.658,15.2a7.518,7.518,0,0,0-2.491,2.491,4.845,4.845,0,0,0-.685,3.052h0a4.758,4.758,0,0,0,2.242-2.118,7.344,7.344,0,0,0,.934-3.426Z" transform="translate(-63.294 -7.539)"/><path class="b" d="M93.29,41.444h0a4.758,4.758,0,0,0,2.242-2.118,7.344,7.344,0,0,0,.934-3.426h0a7.519,7.519,0,0,0-2.492,2.491,5.39,5.39,0,0,0-.685,3.052Z" transform="translate(-67.752 -15.345)"/><path class="b" d="M99.375,18.652a7.518,7.518,0,0,0,2.491,2.491h0a7.5,7.5,0,0,0-.934-3.426A5.427,5.427,0,0,0,98.69,15.6h0A5.522,5.522,0,0,0,99.375,18.652Z" transform="translate(-69.789 -7.69)"/><path class="b" d="M105.35,29.052a7.518,7.518,0,0,0,2.491,2.491h0a7.5,7.5,0,0,0-.934-3.426A5.427,5.427,0,0,0,104.665,26h0A4.406,4.406,0,0,0,105.35,29.052Z" transform="translate(-72.026 -11.612)"/><path class="b" d="M93.1,24.634h0a4.913,4.913,0,0,0,2.99.934,6.583,6.583,0,0,0,3.364-.934h0A7.681,7.681,0,0,0,96.09,23.7,6.065,6.065,0,0,0,93.1,24.634Z" transform="translate(-67.687 -10.744)"/><path class="b" d="M105.1,24.634h0a4.914,4.914,0,0,0,2.99.934,6.583,6.583,0,0,0,3.364-.934h0a7.681,7.681,0,0,0-3.364-.934,5.481,5.481,0,0,0-2.99.934Z" transform="translate(-72.212 -10.744)"/><path class="b" d="M100.924,29.426A7.344,7.344,0,0,0,101.858,26h0a7.518,7.518,0,0,0-2.491,2.491,4.845,4.845,0,0,0-.685,3.052h0A5.427,5.427,0,0,0,100.924,29.426Z" transform="translate(-69.781 -11.612)"/><path class="b" d="M105.367,18.091a4.845,4.845,0,0,0-.685,3.052h0a4.758,4.758,0,0,0,2.242-2.118,7.344,7.344,0,0,0,.934-3.426h0A6.963,6.963,0,0,0,105.367,18.091Z" transform="translate(-72.043 -7.69)"/><path class="b" d="M93.567,8.452a7.518,7.518,0,0,0,2.491,2.491h0a7.5,7.5,0,0,0-.934-3.426A5.427,5.427,0,0,0,92.882,5.4h0A4.845,4.845,0,0,0,93.567,8.452Z" transform="translate(-67.593 -3.843)"/><path class="b" d="M81.383,4.134a5.422,5.422,0,0,0,2.99.934,6.583,6.583,0,0,0,3.364-.934h0A7.681,7.681,0,0,0,84.373,3.2a4.52,4.52,0,0,0-2.99.934Z" transform="translate(-63.258 -3.013)"/><path class="b" d="M93.3,4.134a5.422,5.422,0,0,0,2.99.934,6.583,6.583,0,0,0,3.364-.934h0A7.682,7.682,0,0,0,96.29,3.2a4.913,4.913,0,0,0-2.99.934Z" transform="translate(-67.762 -3.013)"/><path class="b" d="M87.567,7.954a4.845,4.845,0,0,0-.685,3.052h0a4.758,4.758,0,0,0,2.242-2.118A7.678,7.678,0,0,0,90.058,5.4h0A8.07,8.07,0,0,0,87.567,7.954Z" transform="translate(-65.33 -3.843)"/><path class="b" d="M87.2,14.334a5.422,5.422,0,0,0,2.99.934,6.583,6.583,0,0,0,3.363-.934h0A7.681,7.681,0,0,0,90.19,13.4a4.913,4.913,0,0,0-2.99.934Z" transform="translate(-65.462 -6.86)"/><path class="b" d="M99.1,14.334h0a4.914,4.914,0,0,0,2.99.934,6.583,6.583,0,0,0,3.364-.934h0a7.681,7.681,0,0,0-3.364-.934,4.914,4.914,0,0,0-2.99.934Z" transform="translate(-69.95 -6.86)"/><path class="b" d="M95.858,15.6a7.519,7.519,0,0,0-2.492,2.491,4.845,4.845,0,0,0-.685,3.052h0a4.759,4.759,0,0,0,2.242-2.118,7.344,7.344,0,0,0,.934-3.426Z" transform="translate(-67.518 -7.69)"/><path class="b" d="M99.367,7.691a4.845,4.845,0,0,0-.685,3.052h0a4.759,4.759,0,0,0,2.242-2.118,7.344,7.344,0,0,0,.934-3.426h0A7.518,7.518,0,0,0,99.367,7.691Z" transform="translate(-69.781 -3.767)"/><path class="b" d="M105.316,34.934h0A6.938,6.938,0,0,0,101.89,34a4.914,4.914,0,0,0-2.99.934h0a5.422,5.422,0,0,0,2.99.934,6.937,6.937,0,0,0,3.426-.934Z" transform="translate(-69.874 -14.629)"/><path class="b" d="M117.316,34.934h0A6.938,6.938,0,0,0,113.89,34a4.914,4.914,0,0,0-2.99.934h0a5.422,5.422,0,0,0,2.99.934,7.22,7.22,0,0,0,3.426-.934Z" transform="translate(-74.4 -14.629)"/><path class="b" d="M111.267,28.391a4.845,4.845,0,0,0-.685,3.052h0a4.759,4.759,0,0,0,2.242-2.118,7.344,7.344,0,0,0,.934-3.426h0A6.008,6.008,0,0,0,111.267,28.391Z" transform="translate(-74.268 -11.574)"/><path class="b" d="M64.667,18.352a7.519,7.519,0,0,0,2.491,2.491h0a7.5,7.5,0,0,0-.934-3.426A5.427,5.427,0,0,0,63.982,15.3h0A4.89,4.89,0,0,0,64.667,18.352Z" transform="translate(-56.694 -7.576)"/><path class="b" d="M70.65,28.752a7.519,7.519,0,0,0,2.492,2.491h0a7.5,7.5,0,0,0-.934-3.426A5.427,5.427,0,0,0,69.965,25.7h0A4.405,4.405,0,0,0,70.65,28.752Z" transform="translate(-58.94 -11.499)"/><path class="b" d="M76.375,38.852a7.519,7.519,0,0,0,2.491,2.491h0a7.5,7.5,0,0,0-.934-3.426A5.427,5.427,0,0,0,75.69,35.8h0A5.521,5.521,0,0,0,76.375,38.852Z" transform="translate(-61.115 -15.308)"/><path class="b" d="M54.832,37.618A5.427,5.427,0,0,0,52.59,35.5h0a5.39,5.39,0,0,0,.685,3.052,7.518,7.518,0,0,0,2.491,2.491h0A7.344,7.344,0,0,0,54.832,37.618Z" transform="translate(-52.403 -15.194)"/><path class="b" d="M60.832,48.018A5.427,5.427,0,0,0,58.59,45.9h0a5.39,5.39,0,0,0,.685,3.052,7.518,7.518,0,0,0,2.492,2.491h0A9.921,9.921,0,0,0,60.832,48.018Z" transform="translate(-54.666 -19.116)"/><path class="b" d="M64.775,38.752a7.519,7.519,0,0,0,2.491,2.491h0a7.5,7.5,0,0,0-.934-3.426A5.427,5.427,0,0,0,64.09,35.7h0A5.39,5.39,0,0,0,64.775,38.752Z" transform="translate(-56.74 -15.27)"/><path class="b" d="M70.75,49.152a7.518,7.518,0,0,0,2.492,2.492h0a7.5,7.5,0,0,0-.934-3.426A5.427,5.427,0,0,0,70.065,46.1h0A4.405,4.405,0,0,0,70.75,49.152Z" transform="translate(-58.978 -19.192)"/><path class="b" d="M70.083,41.244a7.518,7.518,0,0,0,2.492-2.491A4.845,4.845,0,0,0,73.26,35.7h0a4.758,4.758,0,0,0-2.242,2.118,7.5,7.5,0,0,0-.934,3.426Z" transform="translate(-58.996 -15.27)"/><path class="b" d="M66.591,49.152a4.845,4.845,0,0,0,.685-3.052h0a4.758,4.758,0,0,0-2.242,2.118,7.344,7.344,0,0,0-.934,3.426h0A6.86,6.86,0,0,0,66.591,49.152Z" transform="translate(-56.75 -19.192)"/><path class="b" d="M64.953,44.834h0a4.913,4.913,0,0,0-2.99-.934,6.583,6.583,0,0,0-3.364.934h0a7.681,7.681,0,0,0,3.364.934,6.065,6.065,0,0,0,2.99-.934Z" transform="translate(-54.676 -18.362)"/><path class="b" d="M58.975,28.652a7.518,7.518,0,0,0,2.491,2.491h0a7.5,7.5,0,0,0-.934-3.426A5.427,5.427,0,0,0,58.29,25.6h0A5.522,5.522,0,0,0,58.975,28.652Z" transform="translate(-54.553 -11.461)"/><path class="b" d="M58.3,20.744h0a8.309,8.309,0,0,0,2.491-2.491,4.845,4.845,0,0,0,.685-3.052h0a4.758,4.758,0,0,0-2.242,2.118,7.344,7.344,0,0,0-.934,3.426Z" transform="translate(-54.563 -7.539)"/><path class="b" d="M54.791,28.652a4.845,4.845,0,0,0,.685-3.052h0a4.759,4.759,0,0,0-2.242,2.118,7.344,7.344,0,0,0-.934,3.426h0A8.31,8.31,0,0,0,54.791,28.652Z" transform="translate(-52.3 -11.461)"/><path class="b" d="M58.7,24.234a7.681,7.681,0,0,0,3.364.934,4.913,4.913,0,0,0,2.99-.934h0a5.422,5.422,0,0,0-2.99-.934,8.758,8.758,0,0,0-3.364.934Z" transform="translate(-54.714 -10.593)"/><path class="b" d="M67.277,25.3h0a4.758,4.758,0,0,0-2.242,2.118,7.344,7.344,0,0,0-.934,3.426h0a7.519,7.519,0,0,0,2.491-2.491,5.39,5.39,0,0,0,.685-3.052Z" transform="translate(-56.75 -11.348)"/><path class="b" d="M60.591,38.852a4.845,4.845,0,0,0,.685-3.052h0a4.758,4.758,0,0,0-2.242,2.118,7.344,7.344,0,0,0-.934,3.426h0A6.964,6.964,0,0,0,60.591,38.852Z" transform="translate(-54.487 -15.308)"/><path class="b" d="M70.953,34.434h0a4.914,4.914,0,0,0-2.99-.934,6.583,6.583,0,0,0-3.363.934h0a7.681,7.681,0,0,0,3.363.934A4.914,4.914,0,0,0,70.953,34.434Z" transform="translate(-56.939 -14.44)"/><path class="b" d="M58.953,34.434h0a4.914,4.914,0,0,0-2.99-.934,6.583,6.583,0,0,0-3.364.934h0a7.681,7.681,0,0,0,3.364.934,4.52,4.52,0,0,0,2.99-.934Z" transform="translate(-52.413 -14.44)"/><path class="b" d="M75.9,51.544a7.519,7.519,0,0,0,2.492-2.491A4.845,4.845,0,0,0,79.077,46h0a4.759,4.759,0,0,0-2.242,2.118,7.5,7.5,0,0,0-.934,3.426Z" transform="translate(-61.2 -19.154)"/><path class="b" d="M72.429,59.452a4.845,4.845,0,0,0,.685-3.052h0a4.758,4.758,0,0,0-2.242,2.118A8.12,8.12,0,0,0,70,61.944h0A6.942,6.942,0,0,0,72.429,59.452Z" transform="translate(-58.975 -23.076)"/><path class="b" d="M82.753,55.134h0a4.913,4.913,0,0,0-2.99-.934,6.583,6.583,0,0,0-3.364.934h0a7.681,7.681,0,0,0,3.364.934,6.065,6.065,0,0,0,2.99-.934Z" transform="translate(-61.389 -22.247)"/><path class="b" d="M70.753,55.134h0a4.913,4.913,0,0,0-2.99-.934,6.583,6.583,0,0,0-3.364.934h0a7.681,7.681,0,0,0,3.364.934,5.481,5.481,0,0,0,2.99-.934Z" transform="translate(-56.863 -22.247)"/></g><g transform="translate(0 35.806)"><path class="c" d="M225.794,92.109a1.148,1.148,0,0,1-1.183-.872L216.637,69h-5.232L203.37,91.237a1.148,1.148,0,0,1-1.183.872H202v4.3h2.616a3.6,3.6,0,0,0,2.056-.436,3.517,3.517,0,0,0,1.121-1.744l1.682-4.8h9.218l1.682,4.8A3.243,3.243,0,0,0,221.5,95.97a3.6,3.6,0,0,0,2.055.436h2.99v-4.3Zm-11.835-6.914h-3.426l2.3-6.852c.311-1,.685-2.367,1.059-4.111h.125l1.059,4.111,2.3,6.852Z" transform="translate(-76.18 -61.837)"/><path class="c" d="M180.711,91.237,178.967,69H173.8l-5.606,13.018c-.436,1.059-.872,2.242-1.308,3.675h-.062l-1.308-3.675L159.907,69h-5.17l-1.744,22.237c-.062.561-.311.872-.81.872H151v4.3h4.3a2.487,2.487,0,0,0,1.931-.623,3.127,3.127,0,0,0,.685-1.993l.872-12.146a31.528,31.528,0,0,0,.062-4.3h.062l.187.747c.125.5.374,1.059.623,1.806.249.685.5,1.308.685,1.744l4.485,10.091h4.049l4.485-10.091a43.473,43.473,0,0,0,1.495-4.236h.062l-.062.685v1.744a17.518,17.518,0,0,0,.062,1.869l.934,12.146a3.127,3.127,0,0,0,.685,1.993,2.579,2.579,0,0,0,1.869.623h3.924v-4.3h-.872C181.022,92.109,180.773,91.8,180.711,91.237Z" transform="translate(-56.946 -61.837)"/><path class="c" d="M91.535,69H88.981a4.776,4.776,0,0,0-2.118.374,3.744,3.744,0,0,0-1.433,1.619l-3.55,5.98c-.623,1.059-1.183,2.118-1.619,3.052h-.125l-1.619-3.052L74.9,70.993a4.739,4.739,0,0,0-1.433-1.619A4.775,4.775,0,0,0,71.354,69H68.8v4.3h.872a1.507,1.507,0,0,1,.872.187.061.061,0,0,1,.062.062,3.529,3.529,0,0,1,.623.685l6.416,10.215V96.406h4.983V84.447l6.416-10.215a2.745,2.745,0,0,1,.685-.747A1.65,1.65,0,0,1,90.6,73.3h.872V69Z" transform="translate(-25.946 -61.837)"/><path class="c" d="M16.818,82.056v-.062a6.1,6.1,0,0,0,2.3-2.242,6.633,6.633,0,0,0,.934-3.613,6.258,6.258,0,0,0-2.3-5.17A9.335,9.335,0,0,0,11.71,69.1H0v4.3H2.491v20.43a2.553,2.553,0,0,0,.623,1.993,2.643,2.643,0,0,0,1.993.623h6.727a11.181,11.181,0,0,0,6.727-1.993,7.069,7.069,0,0,0,2.678-5.917,7.41,7.41,0,0,0-1.121-3.986A5.3,5.3,0,0,0,16.818,82.056Zm-9.343-8.72H11.71a3.335,3.335,0,0,1,2.491.934,3.563,3.563,0,0,1,.872,2.491,3.961,3.961,0,0,1-.872,2.554,2.938,2.938,0,0,1-2.429,1h-4.3Zm7.537,17.69a3.614,3.614,0,0,1-2.8,1.121H8.346c-.561,0-.81-.311-.81-.872V84.236h4.734a3.614,3.614,0,0,1,2.8,1.121,4.013,4.013,0,0,1,1.059,2.8A4.751,4.751,0,0,1,15.011,91.025Z" transform="translate(0 -61.875)"/><path class="c" d="M119.315,68.3A13.826,13.826,0,0,0,105.3,82.252a14.2,14.2,0,0,0,4.049,10.215,14.135,14.135,0,0,0,19.932,0,14.1,14.1,0,0,0,4.049-10.215,13.484,13.484,0,0,0-4.049-9.9A13.29,13.29,0,0,0,119.315,68.3Zm6.291,20.8a8.146,8.146,0,0,1-6.291,2.8,8.239,8.239,0,0,1-6.291-2.8,9.826,9.826,0,0,1-2.554-6.852,9.073,9.073,0,0,1,2.554-6.54,8.245,8.245,0,0,1,6.291-2.678,8.339,8.339,0,0,1,6.291,2.678,9.282,9.282,0,0,1,2.554,6.54A9.934,9.934,0,0,1,125.606,89.1Z" transform="translate(-39.712 -61.573)"/><path class="c" d="M57.846,91.237l-.062-.125L49.874,69H44.641L36.606,91.237a1.148,1.148,0,0,1-1.183.872H34.8v4.3h2.99a3.6,3.6,0,0,0,2.055-.436,3.517,3.517,0,0,0,1.121-1.744l1.682-4.8h9.219l1.682,4.8A3.243,3.243,0,0,0,54.67,95.97a3.6,3.6,0,0,0,2.055.436h2.928v-4.3H59.03A1.2,1.2,0,0,1,57.846,91.237ZM47.2,85.195H43.769l2.367-6.852c.311-1,.685-2.367,1.059-4.111h.125l1.059,4.111,2.3,6.852Z" transform="translate(-13.124 -61.837)"/><path class="c" d="M229.064,64.227a3.364,3.364,0,1,0-3.363-3.364A3.35,3.35,0,0,0,229.064,64.227Zm0-6.166a2.8,2.8,0,1,1-2.8,2.8A2.791,2.791,0,0,1,229.064,58.061Z" transform="translate(-85.118 -57.5)"/><path class="c" d="M229.274,62.069h.747c.062,0,.062,0,.125.062a.061.061,0,0,1,.062.062l.249.249c.062.125.187.249.311.436l.436.685h.561l-.561-.934a2.712,2.712,0,0,0-.374-.436.86.86,0,0,0-.249-.187,1.013,1.013,0,0,0,.685-.311,1.107,1.107,0,0,0,.249-.623,1.173,1.173,0,0,0-.125-.5.638.638,0,0,0-.374-.311,1.937,1.937,0,0,0-.685-.062H228.9v3.364h.436V62.069Zm0-1.495h1.059a1.244,1.244,0,0,1,.561.125.538.538,0,0,1,.187.374.562.562,0,0,1-.062.311c-.062.062-.125.187-.249.187a1.071,1.071,0,0,1-.5.062h-.934V60.574Z" transform="translate(-86.325 -58.518)"/></g><g transform="translate(27.967 74.922)"><path class="d" d="M79.793,120.4H77.8v.623h.374v2.99a.286.286,0,0,0,.374.374h1.246a2.307,2.307,0,0,0,1.121-.5,2.273,2.273,0,0,0,0-2.99A2.307,2.307,0,0,0,79.793,120.4Zm.561,3.052a1.2,1.2,0,0,1-.561.311.923.923,0,0,1-.436.062h-.374a.134.134,0,0,1-.125-.125v-2.616h.5a1.06,1.06,0,0,1,.436.062,2.524,2.524,0,0,1,.561.311,1.315,1.315,0,0,1,.374,1A2.379,2.379,0,0,1,80.354,123.452Z" transform="translate(-57.308 -120.338)"/><path class="d" d="M178.165,120.525a.467.467,0,0,0-.062.311v1.806a2.144,2.144,0,0,0,.062.561h0l-.062-.062c0-.062-.062-.125-.125-.249s-.124-.187-.124-.249l-1.495-2.242h-.685v3.239a.134.134,0,0,1-.125.125H175.3v.623h.685a.286.286,0,0,0,.374-.374v-1.806a2.145,2.145,0,0,0-.062-.561h0l.062.062c0,.062.062.125.125.249s.125.187.125.249l1.495,2.242h.685V121.21a.134.134,0,0,1,.125-.125h.249v-.623h-.685A.247.247,0,0,0,178.165,120.525Z" transform="translate(-94.077 -120.338)"/><path class="d" d="M186.839,123.327a.48.48,0,0,1-.187.125.86.86,0,0,1-.249.187.476.476,0,0,1-.311.125.924.924,0,0,1-.436.062,1.121,1.121,0,0,1-.934-.436,1.414,1.414,0,0,1-.374-1,1.315,1.315,0,0,1,.374-1,1.268,1.268,0,0,1,.934-.374,1.819,1.819,0,0,1,.561.125.318.318,0,0,1,.249.311v.249h.685v-.436a.565.565,0,0,0-.187-.436,1,1,0,0,0-.436-.249,1.465,1.465,0,0,0-.5-.125,1.216,1.216,0,0,0-.436-.062,1.919,1.919,0,0,0-1.993,1.993,2.02,2.02,0,0,0,.561,1.495,2.063,2.063,0,0,0,1.495.623,1.724,1.724,0,0,0,.561-.062,3.044,3.044,0,0,0,.436-.187,1.361,1.361,0,0,0,.311-.187q.187-.093.187-.187l.062-.062-.374-.5Z" transform="translate(-97.208 -120.338)"/><rect class="d" width="0.685" height="0.747" transform="translate(25.6 3.364)"/><path class="d" d="M73.68,123.639a.134.134,0,0,1-.125.125h-.872a.134.134,0,0,1-.125-.125v-2.865a.286.286,0,0,0-.374-.374H71.5v.623h.249a.134.134,0,0,1,.125.125v2.865a.286.286,0,0,0,.374.374h1.744a.286.286,0,0,0,.374-.374v-.623H73.68Z" transform="translate(-54.932 -120.338)"/><path class="d" d="M159.328,123.714l-.374-.747q-.093-.187-.187-.187h0c.062,0,.125-.062.187-.062l.187-.187a1.362,1.362,0,0,0,.187-.311,1.06,1.06,0,0,0,.062-.436,1.232,1.232,0,0,0-.311-.872,1.35,1.35,0,0,0-.872-.311H156.4v.623h.374v3.364h.747v-1.495h.561a.134.134,0,0,1,.125.125l.5,1a.86.86,0,0,0,.187.249c.062.062.187.062.374.062h.374V123.9h-.062C159.514,123.839,159.39,123.839,159.328,123.714Zm-.81-1.495a.566.566,0,0,1-.436.187h-.561v-1.246h.561a.565.565,0,0,1,.436.187.526.526,0,0,1,.125.436A.413.413,0,0,1,158.518,122.219Z" transform="translate(-86.95 -120.413)"/><path class="d" d="M49.447,120.462a.324.324,0,0,0-.125.249l-.561,2.367a1.06,1.06,0,0,0-.062.436h0l-.062-.436-.685-2.678h-.623l-.747,2.678a1.06,1.06,0,0,0-.062.436h0l-.062-.436-.561-2.367c0-.125-.062-.187-.187-.249a.467.467,0,0,0-.311-.062h-.5v.623h.062c.125,0,.187.062.187.125l.81,3.239h.872l.623-2.242c.062-.187.062-.311.125-.5h0l.125.5.623,2.242H49.2l.81-3.239c0-.062.062-.125.187-.125h.125V120.4h-.5A2.2,2.2,0,0,0,49.447,120.462Z" transform="translate(-44.9 -120.338)"/><path class="d" d="M67.128,123.714l-.374-.747q-.093-.187-.187-.187h0c.062,0,.125-.062.187-.062l.187-.187a1.363,1.363,0,0,0,.187-.311,1.06,1.06,0,0,0,.062-.436,1.232,1.232,0,0,0-.311-.872,1.35,1.35,0,0,0-.872-.311H64.2v.623h.374v3.364h.747v-1.495h.561a.134.134,0,0,1,.125.125l.5,1a.86.86,0,0,0,.187.249c.062.062.187.062.374.062h.374V123.9h-.062C67.252,123.839,67.19,123.839,67.128,123.714Zm-.81-1.495a.565.565,0,0,1-.436.187h-.561v-1.246h.561a.565.565,0,0,1,.436.187.525.525,0,0,1,.125.436A1.155,1.155,0,0,1,66.318,122.219Z" transform="translate(-52.179 -120.413)"/><path class="d" d="M57.493,120.3a1.919,1.919,0,0,0-1.993,1.993,2.232,2.232,0,0,0,.561,1.495,2.028,2.028,0,0,0,1.433.623,1.8,1.8,0,0,0,1.433-.623,2.02,2.02,0,0,0,.561-1.495,1.919,1.919,0,0,0-1.993-1.993Zm.934,3.052a1.325,1.325,0,0,1-.934.436,1.121,1.121,0,0,1-.934-.436,1.414,1.414,0,0,1-.374-1,1.308,1.308,0,1,1,2.616,0A1.414,1.414,0,0,1,58.427,123.352Z" transform="translate(-48.898 -120.3)"/><path class="d" d="M193.9,123.49v.249a.134.134,0,0,1-.125.125h-.934a.134.134,0,0,1-.125-.125V122.8h1.308v-.623h-1.308v-1.059h.872a.134.134,0,0,1,.125.125v.249h.685v-.623a.33.33,0,0,0-.374-.374H191.6v.623h.374v2.99a.286.286,0,0,0,.374.374h1.806a.286.286,0,0,0,.374-.374v-.623Z" transform="translate(-100.225 -120.375)"/><path class="d" d="M94.48,122.418c-.125-.062-.249-.187-.374-.249l-.374-.187-.374-.187a.86.86,0,0,1-.249-.187.324.324,0,0,1-.125-.249.343.343,0,0,1,.187-.311.9.9,0,0,1,.436-.125.79.79,0,0,1,.374.062c.125.062.187.125.187.249v.187h.685v-.374a.565.565,0,0,0-.187-.436,1.281,1.281,0,0,0-.934-.311,1.53,1.53,0,0,0-.934.311,1,1,0,0,0-.374.81.9.9,0,0,0,.125.436,1.36,1.36,0,0,0,.249.311c.125.062.249.187.374.249l.374.187.374.187a.86.86,0,0,1,.249.187.472.472,0,0,1,.125.249.538.538,0,0,1-.187.374.9.9,0,0,1-.436.125.562.562,0,0,1-.311-.062c-.125-.062-.187-.062-.249-.125s-.125-.062-.187-.125-.125-.062-.125-.125l-.062-.062-.436.5.062.062c.062.062.125.062.187.125s.187.125.249.187a.886.886,0,0,0,.374.125,1.214,1.214,0,0,0,.5.062,1.4,1.4,0,0,0,.934-.311,1.1,1.1,0,0,0,.374-.81,1.466,1.466,0,0,0-.125-.5C94.667,122.667,94.6,122.542,94.48,122.418Z" transform="translate(-62.776 -120.3)"/><path class="d" d="M170.6,123.639a.134.134,0,0,1-.125.125h-.934a.134.134,0,0,1-.125-.125V122.7h1.308v-.623h-1.308v-1.059h.872a.134.134,0,0,1,.125.125v.249h.685v-.623a.33.33,0,0,0-.374-.374H168.3v.623h.374v2.99a.286.286,0,0,0,.374.374h1.806a.286.286,0,0,0,.374-.374v-.623H170.6Z" transform="translate(-91.438 -120.338)"/><path class="d" d="M138.141,121.147l.125-.125h.311V120.4h-.436a.467.467,0,0,0-.311.062.861.861,0,0,0-.187.249l-.374.685a3.7,3.7,0,0,0-.249.5h0l-.249-.5-.374-.685a.861.861,0,0,0-.187-.249.467.467,0,0,0-.311-.062h-.436v.623h.311l.125.125.747,1.183-1.246,2.055h.81l.623-1.059a3.7,3.7,0,0,0,.249-.5h0l.249.5.623,1.059h.81l-1.246-2.055Z" transform="translate(-79.03 -120.338)"/><path class="d" d="M144.369,120.4H142.5v.623h.374v3.364h.747v-1.37h.747a1.308,1.308,0,1,0,0-2.616Zm.374,1.806a.565.565,0,0,1-.436.187h-.561v-1.37h.623a.566.566,0,0,1,.436.187.708.708,0,0,1,.187.5A3.671,3.671,0,0,0,144.742,122.206Z" transform="translate(-81.708 -120.338)"/><path class="d" d="M163.7,121.023h.436v2.741H163.7v.623h1.495v-.623h-.374v-2.741h.374V120.4H163.7Z" transform="translate(-89.703 -120.338)"/><path class="d" d="M100.693,120.3h0a1.919,1.919,0,0,0-1.993,1.993,2.232,2.232,0,0,0,.561,1.495,2.028,2.028,0,0,0,1.433.623h0a1.8,1.8,0,0,0,1.433-.623,2.02,2.02,0,0,0,.561-1.495,1.919,1.919,0,0,0-1.993-1.993Zm.872,3.052a1.325,1.325,0,0,1-.934.436h0a1.121,1.121,0,0,1-.934-.436,1.415,1.415,0,0,1-.374-1,1.277,1.277,0,0,1,1.308-1.308h0a1.277,1.277,0,0,1,1.308,1.308A1.415,1.415,0,0,1,101.565,123.352Z" transform="translate(-65.189 -120.3)"/><path class="d" d="M151.8,123.639a.134.134,0,0,1-.125.125h-.934a.134.134,0,0,1-.125-.125V122.7h1.308v-.623h-1.308v-1.059h.872a.134.134,0,0,1,.125.125v.249h.685v-.623a.33.33,0,0,0-.374-.374H149.5v.623h.374v2.99a.286.286,0,0,0,.374.374h1.806a.286.286,0,0,0,.374-.374v-.623h-.685v.249Z" transform="translate(-84.348 -120.338)"/><path class="d" d="M130.9,123.639a.134.134,0,0,1-.125.125h-.934a.134.134,0,0,1-.125-.125V122.7h1.308v-.623h-1.308v-1.059h.872a.134.134,0,0,1,.125.125v.249h.685v-.623a.33.33,0,0,0-.374-.374H128.6v.623h.374v2.99a.286.286,0,0,0,.374.374h1.806a.286.286,0,0,0,.374-.374v-.623h-.685v.249Z" transform="translate(-76.466 -120.338)"/><path class="d" d="M117.88,123.639a.134.134,0,0,1-.125.125h-.872a.134.134,0,0,1-.125-.125v-2.865a.286.286,0,0,0-.374-.374H115.7v.623h.249a.134.134,0,0,1,.125.125v2.865a.286.286,0,0,0,.374.374h1.744a.286.286,0,0,0,.374-.374v-.623h-.685v.249Z" transform="translate(-71.601 -120.338)"/><path class="d" d="M110.065,120.525a.467.467,0,0,0-.062.311v2.18a.722.722,0,0,1-.249.623.952.952,0,0,1-.623.249.8.8,0,0,1-.623-.249.952.952,0,0,1-.249-.623v-2.242a.286.286,0,0,0-.374-.374H107.2v.623h.249a.134.134,0,0,1,.125.125v1.806a1.283,1.283,0,0,0,.436,1.059,1.791,1.791,0,0,0,1.121.436,1.413,1.413,0,0,0,1.121-.436,1.283,1.283,0,0,0,.436-1.059v-1.806a.134.134,0,0,1,.125-.125h.249V120.4h-.747A.472.472,0,0,0,110.065,120.525Z" transform="translate(-68.395 -120.338)"/><rect class="d" width="0.685" height="0.747" transform="translate(48.397 3.364)"/></g></g></svg>