<svg xmlns="http://www.w3.org/2000/svg" viewBox="0 0 50 49"><defs><style>.a{fill:#0e301f;}.b{fill:#a9cf43;}</style></defs><g transform="translate(0.524 -0.211)"><g transform="translate(11.303 11.248)"><rect class="a" width="50" height="49" rx="13" transform="translate(-11.827 -11.038)"/><path class="b" d="M19.54,0H7.447A7.456,7.456,0,0,0,0,7.448V19.54a7.456,7.456,0,0,0,7.447,7.448H19.54a7.456,7.456,0,0,0,7.448-7.448V7.448A7.456,7.456,0,0,0,19.54,0Zm5.053,19.54a5.059,5.059,0,0,1-5.053,5.053H7.447A5.059,5.059,0,0,1,2.394,19.54V7.448A5.059,5.059,0,0,1,7.447,2.394H19.54a5.059,5.059,0,0,1,5.053,5.053V19.54Z"/><path class="b" d="M47.922,40.97a6.954,6.954,0,1,0,6.954,6.954A6.962,6.962,0,0,0,47.922,40.97Zm0,11.513a4.559,4.559,0,1,1,4.56-4.559A4.565,4.565,0,0,1,47.922,52.483Z" transform="translate(-34.428 -34.43)"/><path class="b" d="M120.677,28.251a1.755,1.755,0,1,0,1.242.514A1.763,1.763,0,0,0,120.677,28.251Z" transform="translate(-99.938 -23.741)"/></g></g></svg>